<?xml version="1.0" encoding="UTF-8"?>
<svg xmlns="http://www.w3.org/2000/svg" viewBox="0 0 1000 1000">
  <defs>
    <style>
      .cls-1 {
        fill: #fff;
      }

      .cls-2 {
        fill: #4377cc;
      }

      .cls-3 {
        fill: #b257e0;
      }
    </style>
  </defs>
  <g id="curly_logo1">
    <rect id="bg1" class="cls-2" width="1000" height="1000"/>
    <g id="wht">
      <path class="cls-1" d="M410.19,420.07c0,44.82,12.11,66.88,65.71,78.97-53.61,13.52-65.71,35.57-65.71,80.4v125.93c0,83.95-47.56,98.18-134.02,98.18v-8.54c47.56-9.96,63.12-37.71,63.12-86.09v-118.1c0-49.8,10.38-78.26,70.04-90.36v-1.42c-59.66-12.09-70.04-40.55-70.04-90.36v-118.1c0-49.09-15.56-76.13-63.12-86.09v-8.54c86.47,0,134.02,14.23,134.02,98.18v125.93Z"/>
      <path class="cls-1" d="M589.94,294.14c0-83.95,47.56-98.18,134.02-98.18v8.54c-47.56,9.96-63.12,37-63.12,86.09v118.1c0,49.8-10.38,78.26-70.04,90.36v1.42c59.66,12.1,70.04,40.55,70.04,90.36v118.1c0,48.38,15.56,76.13,63.12,86.09v8.54c-86.47,0-134.02-14.23-134.02-98.18v-125.93c0-44.82-12.11-66.88-65.71-80.4,53.61-12.09,65.71-34.15,65.71-78.97v-125.93Z"/>
    </g>
  </g>
  <g id="favicon">
    <rect id="bg1-2" data-name="bg1" class="cls-2" width="1000" height="1000"/>
    <rect id="bg1-3" data-name="bg1" class="cls-3" width="1000" height="1000"/>
    <g id="wht-2" data-name="wht">
      <path class="cls-1" d="M400.45,415c0,47.81,13.41,71.34,72.79,84.24-59.38,14.42-72.79,37.95-72.79,85.76v134.34c0,89.56-52.68,104.74-148.45,104.74v-9.11c52.68-10.63,69.91-40.22,69.91-91.83v-125.99c0-53.13,11.49-83.48,77.58-96.39v-1.52c-66.08-12.9-77.58-43.26-77.58-96.39v-125.99c0-52.37-17.24-81.21-69.91-91.83v-9.11c95.77,0,148.45,15.18,148.45,104.74v134.34Z"/>
      <path class="cls-1" d="M599.55,280.66c0-89.56,52.68-104.74,148.45-104.74v9.11c-52.68,10.63-69.91,39.47-69.91,91.83v125.99c0,53.13-11.49,83.49-77.58,96.39v1.52c66.08,12.9,77.58,43.26,77.58,96.39v125.99c0,51.61,17.24,81.21,69.91,91.83v9.11c-95.77,0-148.45-15.18-148.45-104.74v-134.34c0-47.81-13.41-71.34-72.79-85.76,59.38-12.9,72.79-36.43,72.79-84.24v-134.34Z"/>
    </g>
  </g>
</svg>